<?xml version="1.0" encoding="utf-8"?>
<svg viewBox="0 0 1050 190" xmlns="http://www.w3.org/2000/svg">
  <defs>
    <radialGradient id="gradient-1" gradientUnits="userSpaceOnUse" cx="152.286" cy="126.898" r="330" gradientTransform="matrix(0.638467, -1.091841, 1.097297, 0.641658, 52.727183, 218.434182)">
      <stop offset="0" style="stop-color: rgb(0, 170, 237);"/>
      <stop offset="1" style="stop-color: rgb(0, 145, 202);"/>
    </radialGradient>
    <linearGradient id="gradient-0" gradientUnits="userSpaceOnUse" x1="330" y1="0" x2="330" y2="660" gradientTransform="matrix(0.980745, -0.195296, 0.195753, 0.983035, -58.663244, 70.697931)">
      <stop offset="0" style="stop-color: rgb(152, 226, 255);"/>
      <stop offset="1" style="stop-color: rgb(78, 193, 239);"/>
    </linearGradient>
  </defs>
  <g transform="matrix(0.276515, 0, 0, 0.276515, 4, 3.750038)">
    <g>
      <circle style="fill: url(#gradient-1); stroke: url(#gradient-0); stroke-width: 20px;" cx="330" cy="330" r="330"/>
      <g transform="matrix(1, 0, 0, 1, 76.243515, 77.183487)">
        <circle style="fill: rgb(255, 255, 255); stroke: rgb(152, 226, 255); stroke-width: 20px;" cx="254.358" cy="253.337" r="75"/>
        <circle style="fill: rgb(212, 243, 255); stroke: rgb(99, 211, 255); stroke-width: 20px;" cx="215.084" cy="54.739" r="57.5"/>
        <circle style="stroke: rgb(78, 193, 239); fill: rgb(179, 233, 255); stroke-width: 20px;" cx="63.26" cy="186.66" r="42.5"/>
        <circle style="stroke: rgb(78, 193, 239); fill: rgb(179, 233, 255); stroke-width: 20px;" cx="405.584" cy="120.172" r="42.5"/>
        <circle style="stroke: rgb(78, 193, 239); fill: rgb(179, 233, 255); stroke-width: 20px;" cx="444.253" cy="318.582" r="42.5"/>
        <circle style="stroke: rgb(78, 193, 239); fill: rgb(179, 233, 255); stroke-width: 20px;" cx="101.614" cy="385.13" r="42.5"/>
        <circle style="fill: rgb(212, 243, 255); stroke: rgb(99, 211, 255); stroke-width: 20px;" cx="291.529" cy="450.894" r="57.5"/>
      </g>
    </g>
  </g>
  <path d="M 267.066 103.245 Q 268.43 103.245 269.422 104.361 Q 270.414 105.477 270.414 107.213 Q 270.414 110.313 266.074 112.917 Q 261.61 115.521 256.65 116.823 Q 251.69 118.125 246.978 118.125 Q 232.966 118.125 224.844 109.817 Q 216.722 101.509 216.722 86.877 Q 216.722 77.577 220.318 70.447 Q 223.914 63.317 230.424 59.349 Q 236.934 55.381 245.242 55.381 Q 257.022 55.381 263.966 63.069 Q 270.91 70.757 270.91 83.901 Q 270.91 86.381 269.918 87.497 Q 268.926 88.613 266.694 88.613 L 226.766 88.613 Q 227.882 109.941 246.978 109.941 Q 251.814 109.941 255.286 108.639 Q 258.758 107.337 262.726 105.105 Q 265.95 103.245 267.066 103.245 Z M 245.366 63.193 Q 237.43 63.193 232.656 68.153 Q 227.882 73.113 227.014 82.165 L 262.106 82.165 Q 261.858 72.989 257.518 68.091 Q 253.178 63.193 245.366 63.193 Z" style="fill: rgb(38, 38, 38); white-space: pre;"/>
  <path d="M 310.338 55.381 Q 333.03 55.381 333.03 79.189 L 333.03 112.917 Q 333.03 115.149 331.728 116.513 Q 330.426 117.877 328.194 117.877 Q 325.962 117.877 324.598 116.513 Q 323.234 115.149 323.234 112.917 L 323.234 106.965 Q 320.878 112.297 316.042 115.211 Q 311.206 118.125 304.882 118.125 Q 299.054 118.125 294.156 115.769 Q 289.258 113.413 286.406 109.197 Q 283.554 104.981 283.554 99.897 Q 283.554 93.077 287.026 89.295 Q 290.498 85.513 298.434 83.839 Q 306.37 82.165 320.506 82.165 L 323.234 82.165 L 323.234 78.073 Q 323.234 70.633 320.196 67.161 Q 317.158 63.689 310.338 63.689 Q 301.906 63.689 293.226 68.277 Q 289.878 70.385 288.514 70.385 Q 287.026 70.385 286.034 69.269 Q 285.042 68.153 285.042 66.417 Q 285.042 64.681 286.096 63.379 Q 287.15 62.077 289.506 60.713 Q 293.846 58.233 299.364 56.807 Q 304.882 55.381 310.338 55.381 Z M 306.246 110.189 Q 313.686 110.189 318.46 105.167 Q 323.234 100.145 323.234 92.209 L 323.234 88.613 L 321.002 88.613 Q 310.09 88.613 304.386 89.543 Q 298.682 90.473 296.264 92.643 Q 293.846 94.813 293.846 99.029 Q 293.846 103.865 297.38 107.027 Q 300.914 110.189 306.246 110.189 Z" style="fill: rgb(38, 38, 38); white-space: pre;"/>
  <path d="M 371.717 118.125 Q 366.013 118.125 360.867 116.761 Q 355.721 115.397 351.753 112.917 Q 349.521 111.429 348.591 110.127 Q 347.661 108.825 347.661 106.965 Q 347.661 105.353 348.591 104.299 Q 349.521 103.245 351.009 103.245 Q 352.497 103.245 355.349 105.105 Q 359.069 107.337 362.727 108.639 Q 366.385 109.941 371.841 109.941 Q 378.537 109.941 382.257 107.585 Q 385.977 105.229 385.977 100.765 Q 385.977 98.037 384.613 96.363 Q 383.249 94.689 379.901 93.387 Q 376.553 92.085 370.105 90.721 Q 359.193 88.365 354.481 84.397 Q 349.769 80.429 349.769 73.609 Q 349.769 68.277 352.745 64.185 Q 355.721 60.093 360.991 57.737 Q 366.261 55.381 372.957 55.381 Q 377.793 55.381 382.319 56.683 Q 386.845 57.985 390.317 60.341 Q 394.533 63.317 394.533 66.541 Q 394.533 68.153 393.541 69.269 Q 392.549 70.385 391.185 70.385 Q 389.697 70.385 386.721 68.277 Q 383.249 66.045 380.149 64.805 Q 377.049 63.565 372.461 63.565 Q 366.633 63.565 363.099 66.169 Q 359.565 68.773 359.565 73.113 Q 359.565 75.841 360.867 77.515 Q 362.169 79.189 365.207 80.491 Q 368.245 81.793 373.949 83.033 Q 382.381 84.893 387.031 87.125 Q 391.681 89.357 393.665 92.581 Q 395.649 95.805 395.649 100.765 Q 395.649 108.577 389.077 113.351 Q 382.505 118.125 371.717 118.125 Z" style="fill: rgb(38, 38, 38); white-space: pre;"/>
  <path d="M 453.311 58.729 Q 454.675 55.753 457.651 55.753 Q 459.511 55.753 460.999 56.993 Q 462.487 58.233 462.487 60.093 Q 462.487 61.209 461.991 62.077 L 427.147 137.221 Q 426.527 138.585 425.349 139.329 Q 424.171 140.073 422.931 140.073 Q 421.071 140.073 419.645 138.895 Q 418.219 137.717 418.219 135.857 Q 418.219 134.865 418.715 133.873 L 427.395 115.149 L 402.843 62.077 Q 402.347 61.209 402.347 60.217 Q 402.347 58.357 404.021 56.993 Q 405.695 55.629 407.679 55.629 Q 408.919 55.629 410.097 56.373 Q 411.275 57.117 411.895 58.481 L 432.603 104.981 L 453.311 58.729 Z" style="fill: rgb(38, 38, 38); white-space: pre;"/>
  <path d="M 522.881 29.217 Q 526.353 29.217 528.585 31.201 Q 530.817 33.185 530.817 36.409 L 530.817 110.561 Q 530.817 113.909 528.709 115.893 Q 526.601 117.877 523.129 117.877 Q 519.657 117.877 517.549 115.893 Q 515.441 113.909 515.441 110.561 L 515.441 107.461 Q 512.713 112.545 507.567 115.397 Q 502.421 118.249 495.849 118.249 Q 488.037 118.249 481.899 114.281 Q 475.761 110.313 472.351 103.059 Q 468.941 95.805 468.941 86.381 Q 468.941 76.957 472.351 69.889 Q 475.761 62.821 481.837 58.977 Q 487.913 55.133 495.849 55.133 Q 502.421 55.133 507.505 57.861 Q 512.589 60.589 515.317 65.549 L 515.317 36.161 Q 515.317 33.061 517.363 31.139 Q 519.409 29.217 522.881 29.217 Z M 499.941 106.221 Q 507.381 106.221 511.411 101.137 Q 515.441 96.053 515.441 86.629 Q 515.441 77.205 511.411 72.183 Q 507.381 67.161 500.065 67.161 Q 492.625 67.161 488.533 72.121 Q 484.441 77.081 484.441 86.381 Q 484.441 95.805 488.533 101.013 Q 492.625 106.221 499.941 106.221 Z" style="fill: rgb(38, 38, 38); white-space: pre;"/>
  <path d="M 554.5 118.001 Q 551.152 118.001 548.982 116.079 Q 546.812 114.157 546.812 110.561 L 546.812 62.697 Q 546.812 59.101 548.982 57.241 Q 551.152 55.381 554.5 55.381 Q 557.848 55.381 560.08 57.241 Q 562.312 59.101 562.312 62.697 L 562.312 110.561 Q 562.312 114.157 560.08 116.079 Q 557.848 118.001 554.5 118.001 Z M 554.5 44.345 Q 550.284 44.345 547.804 42.051 Q 545.324 39.757 545.324 36.037 Q 545.324 32.317 547.804 30.085 Q 550.284 27.853 554.5 27.853 Q 558.592 27.853 561.134 30.085 Q 563.676 32.317 563.676 36.037 Q 563.676 39.757 561.196 42.051 Q 558.716 44.345 554.5 44.345 Z" style="fill: rgb(38, 38, 38); white-space: pre;"/>
  <path d="M 608.933 41.369 Q 603.229 41.741 600.625 44.841 Q 598.021 47.941 598.021 53.769 L 598.021 56.621 L 608.561 56.621 Q 615.505 56.621 615.505 62.449 Q 615.505 68.277 608.561 68.277 L 598.021 68.277 L 598.021 110.561 Q 598.021 114.157 595.851 116.017 Q 593.681 117.877 590.333 117.877 Q 586.985 117.877 584.753 116.017 Q 582.521 114.157 582.521 110.561 L 582.521 68.277 L 576.321 68.277 Q 569.377 68.277 569.377 62.449 Q 569.377 56.621 576.321 56.621 L 582.521 56.621 L 582.521 55.753 Q 582.521 44.097 588.659 37.463 Q 594.797 30.829 605.957 29.961 L 609.181 29.713 Q 614.141 29.341 616.187 30.767 Q 618.233 32.193 618.233 35.169 Q 618.233 40.501 612.157 41.121 L 608.933 41.369 Z" style="fill: rgb(38, 38, 38); white-space: pre;"/>
  <path d="M 652.206 41.369 Q 646.502 41.741 643.898 44.841 Q 641.294 47.941 641.294 53.769 L 641.294 56.621 L 651.834 56.621 Q 658.778 56.621 658.778 62.449 Q 658.778 68.277 651.834 68.277 L 641.294 68.277 L 641.294 110.561 Q 641.294 114.157 639.124 116.017 Q 636.954 117.877 633.606 117.877 Q 630.258 117.877 628.026 116.017 Q 625.794 114.157 625.794 110.561 L 625.794 68.277 L 619.594 68.277 Q 612.65 68.277 612.65 62.449 Q 612.65 56.621 619.594 56.621 L 625.794 56.621 L 625.794 55.753 Q 625.794 44.097 631.932 37.463 Q 638.07 30.829 649.23 29.961 L 652.454 29.713 Q 657.414 29.341 659.46 30.767 Q 661.506 32.193 661.506 35.169 Q 661.506 40.501 655.43 41.121 L 652.206 41.369 Z" style="fill: rgb(38, 38, 38); white-space: pre;"/>
  <path d="M 699.828 55.381 Q 703.052 55.133 704.912 56.745 Q 706.772 58.357 706.772 61.581 Q 706.772 64.929 705.16 66.541 Q 703.548 68.153 699.332 68.649 L 695.612 69.021 Q 688.296 69.765 684.886 73.981 Q 681.476 78.197 681.476 84.521 L 681.476 110.561 Q 681.476 114.157 679.244 116.079 Q 677.012 118.001 673.664 118.001 Q 670.316 118.001 668.146 116.079 Q 665.976 114.157 665.976 110.561 L 665.976 62.573 Q 665.976 59.101 668.146 57.241 Q 670.316 55.381 673.54 55.381 Q 676.764 55.381 678.748 57.179 Q 680.732 58.977 680.732 62.325 L 680.732 67.285 Q 683.088 61.829 687.738 58.853 Q 692.388 55.877 698.092 55.505 L 699.828 55.381 Z" style="fill: rgb(38, 38, 38); white-space: pre;"/>
  <path d="M 739.507 55.133 Q 752.155 55.133 758.293 61.395 Q 764.431 67.657 764.431 80.429 L 764.431 110.685 Q 764.431 114.033 762.447 115.955 Q 760.463 117.877 756.991 117.877 Q 753.767 117.877 751.721 115.893 Q 749.675 113.909 749.675 110.685 L 749.675 107.957 Q 747.567 112.793 743.041 115.521 Q 738.515 118.249 732.563 118.249 Q 726.487 118.249 721.527 115.769 Q 716.567 113.289 713.715 108.949 Q 710.863 104.609 710.863 99.277 Q 710.863 92.581 714.273 88.737 Q 717.683 84.893 725.371 83.157 Q 733.059 81.421 746.575 81.421 L 749.675 81.421 L 749.675 78.569 Q 749.675 72.493 747.071 69.703 Q 744.467 66.913 738.639 66.913 Q 735.043 66.913 731.323 67.967 Q 727.603 69.021 722.519 71.005 Q 719.295 72.617 717.807 72.617 Q 715.575 72.617 714.149 71.005 Q 712.723 69.393 712.723 66.789 Q 712.723 64.681 713.777 63.131 Q 714.831 61.581 717.311 60.217 Q 721.651 57.861 727.665 56.497 Q 733.679 55.133 739.507 55.133 Z M 735.663 107.089 Q 741.863 107.089 745.769 102.935 Q 749.675 98.781 749.675 92.209 L 749.675 89.605 L 747.443 89.605 Q 739.135 89.605 734.547 90.349 Q 729.959 91.093 727.975 92.953 Q 725.991 94.813 725.991 98.037 Q 725.991 102.005 728.781 104.547 Q 731.571 107.089 735.663 107.089 Z" style="fill: rgb(38, 38, 38); white-space: pre;"/>
  <path d="M 807.088 118.249 Q 798.036 118.249 791.154 114.405 Q 784.272 110.561 780.552 103.493 Q 776.832 96.425 776.832 87.001 Q 776.832 77.577 780.738 70.323 Q 784.644 63.069 791.712 59.101 Q 798.78 55.133 807.956 55.133 Q 812.792 55.133 817.69 56.497 Q 822.588 57.861 826.308 60.217 Q 830.276 62.821 830.276 66.789 Q 830.276 69.517 828.974 71.191 Q 827.672 72.865 825.564 72.865 Q 824.2 72.865 822.712 72.245 Q 821.224 71.625 819.736 70.757 Q 817.008 69.145 814.528 68.215 Q 812.048 67.285 808.824 67.285 Q 801.136 67.285 796.982 72.307 Q 792.828 77.329 792.828 86.753 Q 792.828 96.053 796.982 101.075 Q 801.136 106.097 808.824 106.097 Q 811.924 106.097 814.342 105.167 Q 816.76 104.237 819.736 102.625 Q 821.596 101.509 822.96 100.951 Q 824.324 100.393 825.688 100.393 Q 827.672 100.393 829.036 102.129 Q 830.4 103.865 830.4 106.469 Q 830.4 108.577 829.47 110.127 Q 828.54 111.677 826.432 112.917 Q 822.588 115.397 817.504 116.823 Q 812.42 118.249 807.088 118.249 Z" style="fill: rgb(38, 38, 38); white-space: pre;"/>
  <path d="M 872.558 106.469 Q 878.758 106.841 878.758 112.049 Q 878.758 115.025 876.34 116.575 Q 873.922 118.125 869.458 117.877 L 866.11 117.629 Q 845.278 116.141 845.278 95.309 L 845.278 68.277 L 839.078 68.277 Q 835.73 68.277 833.932 66.789 Q 832.134 65.301 832.134 62.449 Q 832.134 59.597 833.932 58.109 Q 835.73 56.621 839.078 56.621 L 845.278 56.621 L 845.278 45.213 Q 845.278 41.865 847.386 39.881 Q 849.494 37.897 853.09 37.897 Q 856.562 37.897 858.67 39.881 Q 860.778 41.865 860.778 45.213 L 860.778 56.621 L 871.318 56.621 Q 874.666 56.621 876.464 58.109 Q 878.262 59.597 878.262 62.449 Q 878.262 65.301 876.464 66.789 Q 874.666 68.277 871.318 68.277 L 860.778 68.277 L 860.778 96.425 Q 860.778 105.601 869.21 106.221 L 872.558 106.469 Z" style="fill: rgb(38, 38, 38); white-space: pre;"/>
  <path d="M 894.508 118.001 Q 891.16 118.001 888.99 116.079 Q 886.82 114.157 886.82 110.561 L 886.82 62.697 Q 886.82 59.101 888.99 57.241 Q 891.16 55.381 894.508 55.381 Q 897.856 55.381 900.088 57.241 Q 902.32 59.101 902.32 62.697 L 902.32 110.561 Q 902.32 114.157 900.088 116.079 Q 897.856 118.001 894.508 118.001 Z M 894.508 44.345 Q 890.292 44.345 887.812 42.051 Q 885.332 39.757 885.332 36.037 Q 885.332 32.317 887.812 30.085 Q 890.292 27.853 894.508 27.853 Q 898.6 27.853 901.142 30.085 Q 903.684 32.317 903.684 36.037 Q 903.684 39.757 901.204 42.051 Q 898.724 44.345 894.508 44.345 Z" style="fill: rgb(38, 38, 38); white-space: pre;"/>
  <path d="M 945.964 118.249 Q 936.664 118.249 929.658 114.405 Q 922.652 110.561 918.808 103.369 Q 914.964 96.177 914.964 86.629 Q 914.964 77.081 918.808 69.951 Q 922.652 62.821 929.658 58.977 Q 936.664 55.133 945.964 55.133 Q 955.264 55.133 962.27 58.977 Q 969.276 62.821 973.058 69.951 Q 976.84 77.081 976.84 86.629 Q 976.84 96.177 973.058 103.369 Q 969.276 110.561 962.27 114.405 Q 955.264 118.249 945.964 118.249 Z M 945.84 106.221 Q 953.404 106.221 957.372 101.261 Q 961.34 96.301 961.34 86.629 Q 961.34 77.081 957.372 72.059 Q 953.404 67.037 945.964 67.037 Q 938.524 67.037 934.494 72.059 Q 930.464 77.081 930.464 86.629 Q 930.464 96.301 934.432 101.261 Q 938.4 106.221 945.84 106.221 Z" style="fill: rgb(38, 38, 38); white-space: pre;"/>
  <path d="M 1024.825 55.133 Q 1035.737 55.133 1041.069 61.333 Q 1046.401 67.533 1046.401 80.057 L 1046.401 110.561 Q 1046.401 114.033 1044.355 116.017 Q 1042.309 118.001 1038.713 118.001 Q 1035.117 118.001 1033.009 116.017 Q 1030.901 114.033 1030.901 110.561 L 1030.901 80.925 Q 1030.901 73.857 1028.235 70.633 Q 1025.569 67.409 1019.865 67.409 Q 1013.169 67.409 1009.139 71.625 Q 1005.109 75.841 1005.109 82.909 L 1005.109 110.561 Q 1005.109 114.033 1003.001 116.017 Q 1000.893 118.001 997.297 118.001 Q 993.701 118.001 991.655 116.017 Q 989.609 114.033 989.609 110.561 L 989.609 62.573 Q 989.609 59.349 991.717 57.365 Q 993.825 55.381 997.421 55.381 Q 1000.645 55.381 1002.691 57.303 Q 1004.737 59.225 1004.737 62.325 L 1004.737 65.673 Q 1007.837 60.589 1013.045 57.861 Q 1018.253 55.133 1024.825 55.133 Z" style="fill: rgb(38, 38, 38); white-space: pre;"/>
  <path d="M 760.522 144.809 Q 771.868 144.809 771.868 156.713 L 771.868 173.577 Q 771.868 174.693 771.217 175.375 Q 770.566 176.057 769.45 176.057 Q 768.334 176.057 767.652 175.375 Q 766.97 174.693 766.97 173.577 L 766.97 170.601 Q 765.792 173.267 763.374 174.724 Q 760.956 176.181 757.794 176.181 Q 754.88 176.181 752.431 175.003 Q 749.982 173.825 748.556 171.717 Q 747.13 169.609 747.13 167.067 Q 747.13 163.657 748.866 161.766 Q 750.602 159.875 754.57 159.038 Q 758.538 158.201 765.606 158.201 L 766.97 158.201 L 766.97 156.155 Q 766.97 152.435 765.451 150.699 Q 763.932 148.963 760.522 148.963 Q 756.306 148.963 751.966 151.257 Q 750.292 152.311 749.61 152.311 Q 748.866 152.311 748.37 151.753 Q 747.874 151.195 747.874 150.327 Q 747.874 149.459 748.401 148.808 Q 748.928 148.157 750.106 147.475 Q 752.276 146.235 755.035 145.522 Q 757.794 144.809 760.522 144.809 Z M 758.476 172.213 Q 762.196 172.213 764.583 169.702 Q 766.97 167.191 766.97 163.223 L 766.97 161.425 L 765.854 161.425 Q 760.398 161.425 757.546 161.89 Q 754.694 162.355 753.485 163.44 Q 752.276 164.525 752.276 166.633 Q 752.276 169.051 754.043 170.632 Q 755.81 172.213 758.476 172.213 Z" style="fill: rgb(38, 38, 38); white-space: pre;"/>
  <path d="M 796.233 144.809 Q 800.201 144.809 803.239 146.793 Q 806.277 148.777 807.951 152.342 Q 809.625 155.907 809.625 160.619 Q 809.625 165.331 807.951 168.834 Q 806.277 172.337 803.27 174.259 Q 800.263 176.181 796.233 176.181 Q 792.699 176.181 790.064 174.631 Q 787.429 173.081 786.065 170.229 L 786.065 184.799 Q 786.065 185.915 785.414 186.566 Q 784.763 187.217 783.585 187.217 Q 782.407 187.217 781.725 186.535 Q 781.043 185.853 781.043 184.799 L 781.043 147.413 Q 781.043 146.297 781.725 145.615 Q 782.407 144.933 783.585 144.933 Q 784.763 144.933 785.414 145.615 Q 786.065 146.297 786.065 147.413 L 786.065 150.761 Q 787.429 147.909 790.064 146.359 Q 792.699 144.809 796.233 144.809 Z M 795.241 172.027 Q 799.643 172.027 802.061 169.051 Q 804.479 166.075 804.479 160.619 Q 804.479 155.163 802.061 152.094 Q 799.643 149.025 795.241 149.025 Q 790.839 149.025 788.452 152.001 Q 786.065 154.977 786.065 160.495 Q 786.065 166.013 788.452 169.02 Q 790.839 172.027 795.241 172.027 Z" style="fill: rgb(38, 38, 38); white-space: pre;"/>
  <path d="M 832.311 144.809 Q 836.279 144.809 839.317 146.793 Q 842.355 148.777 844.029 152.342 Q 845.703 155.907 845.703 160.619 Q 845.703 165.331 844.029 168.834 Q 842.355 172.337 839.348 174.259 Q 836.341 176.181 832.311 176.181 Q 828.777 176.181 826.142 174.631 Q 823.507 173.081 822.143 170.229 L 822.143 184.799 Q 822.143 185.915 821.492 186.566 Q 820.841 187.217 819.663 187.217 Q 818.485 187.217 817.803 186.535 Q 817.121 185.853 817.121 184.799 L 817.121 147.413 Q 817.121 146.297 817.803 145.615 Q 818.485 144.933 819.663 144.933 Q 820.841 144.933 821.492 145.615 Q 822.143 146.297 822.143 147.413 L 822.143 150.761 Q 823.507 147.909 826.142 146.359 Q 828.777 144.809 832.311 144.809 Z M 831.319 172.027 Q 835.721 172.027 838.139 169.051 Q 840.557 166.075 840.557 160.619 Q 840.557 155.163 838.139 152.094 Q 835.721 149.025 831.319 149.025 Q 826.917 149.025 824.53 152.001 Q 822.143 154.977 822.143 160.495 Q 822.143 166.013 824.53 169.02 Q 826.917 172.027 831.319 172.027 Z" style="fill: rgb(38, 38, 38); white-space: pre;"/>
  <path d="M 855.749 176.057 Q 854.633 176.057 853.92 175.406 Q 853.207 174.755 853.207 173.577 L 853.207 134.207 Q 853.207 133.029 853.92 132.378 Q 854.633 131.727 855.749 131.727 Q 856.803 131.727 857.516 132.378 Q 858.229 133.029 858.229 134.207 L 858.229 173.577 Q 858.229 174.755 857.516 175.406 Q 856.803 176.057 855.749 176.057 Z" style="fill: rgb(38, 38, 38); white-space: pre;"/>
  <path d="M 870.132 176.057 Q 869.016 176.057 868.303 175.406 Q 867.59 174.755 867.59 173.577 L 867.59 147.413 Q 867.59 146.235 868.303 145.584 Q 869.016 144.933 870.132 144.933 Q 871.248 144.933 871.93 145.584 Q 872.612 146.235 872.612 147.413 L 872.612 173.577 Q 872.612 174.817 871.93 175.437 Q 871.248 176.057 870.132 176.057 Z M 870.132 138.423 Q 868.644 138.423 867.714 137.555 Q 866.784 136.687 866.784 135.261 Q 866.784 133.897 867.714 133.029 Q 868.644 132.161 870.132 132.161 Q 871.62 132.161 872.55 133.029 Q 873.48 133.897 873.48 135.261 Q 873.48 136.687 872.55 137.555 Q 871.62 138.423 870.132 138.423 Z" style="fill: rgb(38, 38, 38); white-space: pre;"/>
  <path d="M 894.435 176.181 Q 890.219 176.181 886.964 174.259 Q 883.709 172.337 881.942 168.803 Q 880.175 165.269 880.175 160.619 Q 880.175 155.969 882.004 152.373 Q 883.833 148.777 887.119 146.793 Q 890.405 144.809 894.683 144.809 Q 897.039 144.809 899.364 145.46 Q 901.689 146.111 903.425 147.351 Q 904.541 148.095 905.006 148.808 Q 905.471 149.521 905.471 150.389 Q 905.471 151.257 905.006 151.815 Q 904.541 152.373 903.797 152.373 Q 903.363 152.373 902.867 152.125 Q 902.371 151.877 902.03 151.629 Q 901.689 151.381 901.565 151.319 Q 899.953 150.265 898.496 149.645 Q 897.039 149.025 894.931 149.025 Q 890.405 149.025 887.894 152.094 Q 885.383 155.163 885.383 160.619 Q 885.383 166.075 887.894 169.051 Q 890.405 172.027 894.931 172.027 Q 897.039 172.027 898.558 171.407 Q 900.077 170.787 901.627 169.733 Q 902.309 169.299 902.929 168.989 Q 903.549 168.679 903.983 168.679 Q 904.665 168.679 905.13 169.237 Q 905.595 169.795 905.595 170.663 Q 905.595 171.469 905.161 172.12 Q 904.727 172.771 903.549 173.577 Q 901.813 174.755 899.364 175.468 Q 896.915 176.181 894.435 176.181 Z" style="fill: rgb(38, 38, 38); white-space: pre;"/>
  <path d="M 924.014 144.809 Q 935.36 144.809 935.36 156.713 L 935.36 173.577 Q 935.36 174.693 934.709 175.375 Q 934.058 176.057 932.942 176.057 Q 931.826 176.057 931.144 175.375 Q 930.462 174.693 930.462 173.577 L 930.462 170.601 Q 929.284 173.267 926.866 174.724 Q 924.448 176.181 921.286 176.181 Q 918.372 176.181 915.923 175.003 Q 913.474 173.825 912.048 171.717 Q 910.622 169.609 910.622 167.067 Q 910.622 163.657 912.358 161.766 Q 914.094 159.875 918.062 159.038 Q 922.03 158.201 929.098 158.201 L 930.462 158.201 L 930.462 156.155 Q 930.462 152.435 928.943 150.699 Q 927.424 148.963 924.014 148.963 Q 919.798 148.963 915.458 151.257 Q 913.784 152.311 913.102 152.311 Q 912.358 152.311 911.862 151.753 Q 911.366 151.195 911.366 150.327 Q 911.366 149.459 911.893 148.808 Q 912.42 148.157 913.598 147.475 Q 915.768 146.235 918.527 145.522 Q 921.286 144.809 924.014 144.809 Z M 921.968 172.213 Q 925.688 172.213 928.075 169.702 Q 930.462 167.191 930.462 163.223 L 930.462 161.425 L 929.346 161.425 Q 923.89 161.425 921.038 161.89 Q 918.186 162.355 916.977 163.44 Q 915.768 164.525 915.768 166.633 Q 915.768 169.051 917.535 170.632 Q 919.302 172.213 921.968 172.213 Z" style="fill: rgb(38, 38, 38); white-space: pre;"/>
  <path d="M 958.486 172.089 Q 960.656 172.275 960.656 174.073 Q 960.656 175.127 959.881 175.654 Q 959.106 176.181 957.556 176.057 L 955.882 175.933 Q 950.922 175.561 948.566 172.957 Q 946.21 170.353 946.21 165.083 L 946.21 149.521 L 942.056 149.521 Q 941.002 149.521 940.413 148.994 Q 939.824 148.467 939.824 147.599 Q 939.824 146.669 940.413 146.111 Q 941.002 145.553 942.056 145.553 L 946.21 145.553 L 946.21 138.547 Q 946.21 137.369 946.892 136.718 Q 947.574 136.067 948.752 136.067 Q 949.868 136.067 950.55 136.718 Q 951.232 137.369 951.232 138.547 L 951.232 145.553 L 958.114 145.553 Q 959.106 145.553 959.695 146.111 Q 960.284 146.669 960.284 147.599 Q 960.284 148.467 959.695 148.994 Q 959.106 149.521 958.114 149.521 L 951.232 149.521 L 951.232 165.331 Q 951.232 168.741 952.627 170.26 Q 954.022 171.779 956.812 171.965 L 958.486 172.089 Z" style="fill: rgb(38, 38, 38); white-space: pre;"/>
  <path d="M 968.156 176.057 Q 967.04 176.057 966.327 175.406 Q 965.614 174.755 965.614 173.577 L 965.614 147.413 Q 965.614 146.235 966.327 145.584 Q 967.04 144.933 968.156 144.933 Q 969.272 144.933 969.954 145.584 Q 970.636 146.235 970.636 147.413 L 970.636 173.577 Q 970.636 174.817 969.954 175.437 Q 969.272 176.057 968.156 176.057 Z M 968.156 138.423 Q 966.668 138.423 965.738 137.555 Q 964.808 136.687 964.808 135.261 Q 964.808 133.897 965.738 133.029 Q 966.668 132.161 968.156 132.161 Q 969.644 132.161 970.574 133.029 Q 971.504 133.897 971.504 135.261 Q 971.504 136.687 970.574 137.555 Q 969.644 138.423 968.156 138.423 Z" style="fill: rgb(38, 38, 38); white-space: pre;"/>
  <path d="M 992.52 176.181 Q 988.242 176.181 984.987 174.259 Q 981.732 172.337 979.965 168.772 Q 978.198 165.207 978.198 160.495 Q 978.198 155.783 979.965 152.218 Q 981.732 148.653 984.987 146.731 Q 988.242 144.809 992.52 144.809 Q 996.798 144.809 1000.084 146.731 Q 1003.37 148.653 1005.137 152.218 Q 1006.904 155.783 1006.904 160.495 Q 1006.904 165.207 1005.137 168.772 Q 1003.37 172.337 1000.084 174.259 Q 996.798 176.181 992.52 176.181 Z M 992.52 172.027 Q 996.984 172.027 999.371 169.082 Q 1001.758 166.137 1001.758 160.495 Q 1001.758 154.977 999.34 151.97 Q 996.922 148.963 992.52 148.963 Q 988.118 148.963 985.7 151.97 Q 983.282 154.977 983.282 160.495 Q 983.282 166.075 985.669 169.051 Q 988.056 172.027 992.52 172.027 Z" style="fill: rgb(38, 38, 38); white-space: pre;"/>
  <path d="M 1029.601 144.809 Q 1040.451 144.809 1040.451 156.775 L 1040.451 173.577 Q 1040.451 174.755 1039.8 175.406 Q 1039.149 176.057 1037.971 176.057 Q 1036.793 176.057 1036.111 175.406 Q 1035.429 174.755 1035.429 173.577 L 1035.429 157.085 Q 1035.429 152.869 1033.786 150.947 Q 1032.143 149.025 1028.547 149.025 Q 1024.393 149.025 1021.913 151.567 Q 1019.433 154.109 1019.433 158.449 L 1019.433 173.577 Q 1019.433 174.755 1018.782 175.406 Q 1018.131 176.057 1016.953 176.057 Q 1015.775 176.057 1015.093 175.406 Q 1014.411 174.755 1014.411 173.577 L 1014.411 147.413 Q 1014.411 146.297 1015.093 145.615 Q 1015.775 144.933 1016.953 144.933 Q 1018.069 144.933 1018.72 145.615 Q 1019.371 146.297 1019.371 147.351 L 1019.371 150.513 Q 1020.859 147.723 1023.525 146.266 Q 1026.191 144.809 1029.601 144.809 Z" style="fill: rgb(38, 38, 38); white-space: pre;"/>
</svg>