<?xml version="1.0" encoding="utf-8"?>
<svg viewBox="0 0 1050 190" xmlns="http://www.w3.org/2000/svg">
  <defs>
    <radialGradient id="gradient-1" gradientUnits="userSpaceOnUse" cx="152.286" cy="126.898" r="330" gradientTransform="matrix(0.638467, -1.091841, 1.097297, 0.641658, 52.727183, 218.434182)">
      <stop offset="0" style="stop-color: rgb(0, 170, 237);"/>
      <stop offset="1" style="stop-color: rgb(0, 145, 202);"/>
    </radialGradient>
    <linearGradient id="gradient-0" gradientUnits="userSpaceOnUse" x1="330" y1="0" x2="330" y2="660" gradientTransform="matrix(0.980745, -0.195296, 0.195753, 0.983035, -58.663244, 70.697931)">
      <stop offset="0" style="stop-color: rgb(152, 226, 255);"/>
      <stop offset="1" style="stop-color: rgb(78, 193, 239);"/>
    </linearGradient>
  </defs>
  <g transform="matrix(0.276515, 0, 0, 0.276515, 4, 3.750038)">
    <g>
      <circle style="fill: url(#gradient-1); stroke: url(#gradient-0); stroke-width: 20px;" cx="330" cy="330" r="330"/>
      <g transform="matrix(1, 0, 0, 1, 76.243515, 77.183487)">
        <circle style="fill: rgb(255, 255, 255); stroke: rgb(152, 226, 255); stroke-width: 20px;" cx="254.358" cy="253.337" r="75"/>
        <circle style="fill: rgb(212, 243, 255); stroke: rgb(99, 211, 255); stroke-width: 20px;" cx="215.084" cy="54.739" r="57.5"/>
        <circle style="stroke: rgb(78, 193, 239); fill: rgb(179, 233, 255); stroke-width: 20px;" cx="63.26" cy="186.66" r="42.5"/>
        <circle style="stroke: rgb(78, 193, 239); fill: rgb(179, 233, 255); stroke-width: 20px;" cx="405.584" cy="120.172" r="42.5"/>
        <circle style="stroke: rgb(78, 193, 239); fill: rgb(179, 233, 255); stroke-width: 20px;" cx="444.253" cy="318.582" r="42.5"/>
        <circle style="stroke: rgb(78, 193, 239); fill: rgb(179, 233, 255); stroke-width: 20px;" cx="101.614" cy="385.13" r="42.5"/>
        <circle style="fill: rgb(212, 243, 255); stroke: rgb(99, 211, 255); stroke-width: 20px;" cx="291.529" cy="450.894" r="57.5"/>
      </g>
    </g>
  </g>
  <path d="M 267.066 113.245 Q 268.43 113.245 269.422 114.361 Q 270.414 115.477 270.414 117.213 Q 270.414 120.313 266.074 122.917 Q 261.61 125.521 256.65 126.823 Q 251.69 128.125 246.978 128.125 Q 232.966 128.125 224.844 119.817 Q 216.722 111.509 216.722 96.877 Q 216.722 87.577 220.318 80.447 Q 223.914 73.317 230.424 69.349 Q 236.934 65.381 245.242 65.381 Q 257.022 65.381 263.966 73.069 Q 270.91 80.757 270.91 93.901 Q 270.91 96.381 269.918 97.497 Q 268.926 98.613 266.694 98.613 L 226.766 98.613 Q 227.882 119.941 246.978 119.941 Q 251.814 119.941 255.286 118.639 Q 258.758 117.337 262.726 115.105 Q 265.95 113.245 267.066 113.245 Z M 245.366 73.193 Q 237.43 73.193 232.656 78.153 Q 227.882 83.113 227.014 92.165 L 262.106 92.165 Q 261.858 82.989 257.518 78.091 Q 253.178 73.193 245.366 73.193 Z" style="fill: rgb(245, 245, 245); white-space: pre;"/>
  <path d="M 310.338 65.381 Q 333.03 65.381 333.03 89.189 L 333.03 122.917 Q 333.03 125.149 331.728 126.513 Q 330.426 127.877 328.194 127.877 Q 325.962 127.877 324.598 126.513 Q 323.234 125.149 323.234 122.917 L 323.234 116.965 Q 320.878 122.297 316.042 125.211 Q 311.206 128.125 304.882 128.125 Q 299.054 128.125 294.156 125.769 Q 289.258 123.413 286.406 119.197 Q 283.554 114.981 283.554 109.897 Q 283.554 103.077 287.026 99.295 Q 290.498 95.513 298.434 93.839 Q 306.37 92.165 320.506 92.165 L 323.234 92.165 L 323.234 88.073 Q 323.234 80.633 320.196 77.161 Q 317.158 73.689 310.338 73.689 Q 301.906 73.689 293.226 78.277 Q 289.878 80.385 288.514 80.385 Q 287.026 80.385 286.034 79.269 Q 285.042 78.153 285.042 76.417 Q 285.042 74.681 286.096 73.379 Q 287.15 72.077 289.506 70.713 Q 293.846 68.233 299.364 66.807 Q 304.882 65.381 310.338 65.381 Z M 306.246 120.189 Q 313.686 120.189 318.46 115.167 Q 323.234 110.145 323.234 102.209 L 323.234 98.613 L 321.002 98.613 Q 310.09 98.613 304.386 99.543 Q 298.682 100.473 296.264 102.643 Q 293.846 104.813 293.846 109.029 Q 293.846 113.865 297.38 117.027 Q 300.914 120.189 306.246 120.189 Z" style="fill: rgb(245, 245, 245); white-space: pre;"/>
  <path d="M 371.717 128.125 Q 366.013 128.125 360.867 126.761 Q 355.721 125.397 351.753 122.917 Q 349.521 121.429 348.591 120.127 Q 347.661 118.825 347.661 116.965 Q 347.661 115.353 348.591 114.299 Q 349.521 113.245 351.009 113.245 Q 352.497 113.245 355.349 115.105 Q 359.069 117.337 362.727 118.639 Q 366.385 119.941 371.841 119.941 Q 378.537 119.941 382.257 117.585 Q 385.977 115.229 385.977 110.765 Q 385.977 108.037 384.613 106.363 Q 383.249 104.689 379.901 103.387 Q 376.553 102.085 370.105 100.721 Q 359.193 98.365 354.481 94.397 Q 349.769 90.429 349.769 83.609 Q 349.769 78.277 352.745 74.185 Q 355.721 70.093 360.991 67.737 Q 366.261 65.381 372.957 65.381 Q 377.793 65.381 382.319 66.683 Q 386.845 67.985 390.317 70.341 Q 394.533 73.317 394.533 76.541 Q 394.533 78.153 393.541 79.269 Q 392.549 80.385 391.185 80.385 Q 389.697 80.385 386.721 78.277 Q 383.249 76.045 380.149 74.805 Q 377.049 73.565 372.461 73.565 Q 366.633 73.565 363.099 76.169 Q 359.565 78.773 359.565 83.113 Q 359.565 85.841 360.867 87.515 Q 362.169 89.189 365.207 90.491 Q 368.245 91.793 373.949 93.033 Q 382.381 94.893 387.031 97.125 Q 391.681 99.357 393.665 102.581 Q 395.649 105.805 395.649 110.765 Q 395.649 118.577 389.077 123.351 Q 382.505 128.125 371.717 128.125 Z" style="fill: rgb(245, 245, 245); white-space: pre;"/>
  <path d="M 453.311 68.729 Q 454.675 65.753 457.651 65.753 Q 459.511 65.753 460.999 66.993 Q 462.487 68.233 462.487 70.093 Q 462.487 71.209 461.991 72.077 L 427.147 147.221 Q 426.527 148.585 425.349 149.329 Q 424.171 150.073 422.931 150.073 Q 421.071 150.073 419.645 148.895 Q 418.219 147.717 418.219 145.857 Q 418.219 144.865 418.715 143.873 L 427.395 125.149 L 402.843 72.077 Q 402.347 71.209 402.347 70.217 Q 402.347 68.357 404.021 66.993 Q 405.695 65.629 407.679 65.629 Q 408.919 65.629 410.097 66.373 Q 411.275 67.117 411.895 68.481 L 432.603 114.981 L 453.311 68.729 Z" style="fill: rgb(245, 245, 245); white-space: pre;"/>
  <path d="M 522.881 39.217 Q 526.353 39.217 528.585 41.201 Q 530.817 43.185 530.817 46.409 L 530.817 120.561 Q 530.817 123.909 528.709 125.893 Q 526.601 127.877 523.129 127.877 Q 519.657 127.877 517.549 125.893 Q 515.441 123.909 515.441 120.561 L 515.441 117.461 Q 512.713 122.545 507.567 125.397 Q 502.421 128.249 495.849 128.249 Q 488.037 128.249 481.899 124.281 Q 475.761 120.313 472.351 113.059 Q 468.941 105.805 468.941 96.381 Q 468.941 86.957 472.351 79.889 Q 475.761 72.821 481.837 68.977 Q 487.913 65.133 495.849 65.133 Q 502.421 65.133 507.505 67.861 Q 512.589 70.589 515.317 75.549 L 515.317 46.161 Q 515.317 43.061 517.363 41.139 Q 519.409 39.217 522.881 39.217 Z M 499.941 116.221 Q 507.381 116.221 511.411 111.137 Q 515.441 106.053 515.441 96.629 Q 515.441 87.205 511.411 82.183 Q 507.381 77.161 500.065 77.161 Q 492.625 77.161 488.533 82.121 Q 484.441 87.081 484.441 96.381 Q 484.441 105.805 488.533 111.013 Q 492.625 116.221 499.941 116.221 Z" style="fill: rgb(245, 245, 245); white-space: pre;"/>
  <path d="M 554.5 128.001 Q 551.152 128.001 548.982 126.079 Q 546.812 124.157 546.812 120.561 L 546.812 72.697 Q 546.812 69.101 548.982 67.241 Q 551.152 65.381 554.5 65.381 Q 557.848 65.381 560.08 67.241 Q 562.312 69.101 562.312 72.697 L 562.312 120.561 Q 562.312 124.157 560.08 126.079 Q 557.848 128.001 554.5 128.001 Z M 554.5 54.345 Q 550.284 54.345 547.804 52.051 Q 545.324 49.757 545.324 46.037 Q 545.324 42.317 547.804 40.085 Q 550.284 37.853 554.5 37.853 Q 558.592 37.853 561.134 40.085 Q 563.676 42.317 563.676 46.037 Q 563.676 49.757 561.196 52.051 Q 558.716 54.345 554.5 54.345 Z" style="fill: rgb(245, 245, 245); white-space: pre;"/>
  <path d="M 608.933 51.369 Q 603.229 51.741 600.625 54.841 Q 598.021 57.941 598.021 63.769 L 598.021 66.621 L 608.561 66.621 Q 615.505 66.621 615.505 72.449 Q 615.505 78.277 608.561 78.277 L 598.021 78.277 L 598.021 120.561 Q 598.021 124.157 595.851 126.017 Q 593.681 127.877 590.333 127.877 Q 586.985 127.877 584.753 126.017 Q 582.521 124.157 582.521 120.561 L 582.521 78.277 L 576.321 78.277 Q 569.377 78.277 569.377 72.449 Q 569.377 66.621 576.321 66.621 L 582.521 66.621 L 582.521 65.753 Q 582.521 54.097 588.659 47.463 Q 594.797 40.829 605.957 39.961 L 609.181 39.713 Q 614.141 39.341 616.187 40.767 Q 618.233 42.193 618.233 45.169 Q 618.233 50.501 612.157 51.121 L 608.933 51.369 Z" style="fill: rgb(245, 245, 245); white-space: pre;"/>
  <path d="M 652.206 51.369 Q 646.502 51.741 643.898 54.841 Q 641.294 57.941 641.294 63.769 L 641.294 66.621 L 651.834 66.621 Q 658.778 66.621 658.778 72.449 Q 658.778 78.277 651.834 78.277 L 641.294 78.277 L 641.294 120.561 Q 641.294 124.157 639.124 126.017 Q 636.954 127.877 633.606 127.877 Q 630.258 127.877 628.026 126.017 Q 625.794 124.157 625.794 120.561 L 625.794 78.277 L 619.594 78.277 Q 612.65 78.277 612.65 72.449 Q 612.65 66.621 619.594 66.621 L 625.794 66.621 L 625.794 65.753 Q 625.794 54.097 631.932 47.463 Q 638.07 40.829 649.23 39.961 L 652.454 39.713 Q 657.414 39.341 659.46 40.767 Q 661.506 42.193 661.506 45.169 Q 661.506 50.501 655.43 51.121 L 652.206 51.369 Z" style="fill: rgb(245, 245, 245); white-space: pre;"/>
  <path d="M 699.828 65.381 Q 703.052 65.133 704.912 66.745 Q 706.772 68.357 706.772 71.581 Q 706.772 74.929 705.16 76.541 Q 703.548 78.153 699.332 78.649 L 695.612 79.021 Q 688.296 79.765 684.886 83.981 Q 681.476 88.197 681.476 94.521 L 681.476 120.561 Q 681.476 124.157 679.244 126.079 Q 677.012 128.001 673.664 128.001 Q 670.316 128.001 668.146 126.079 Q 665.976 124.157 665.976 120.561 L 665.976 72.573 Q 665.976 69.101 668.146 67.241 Q 670.316 65.381 673.54 65.381 Q 676.764 65.381 678.748 67.179 Q 680.732 68.977 680.732 72.325 L 680.732 77.285 Q 683.088 71.829 687.738 68.853 Q 692.388 65.877 698.092 65.505 L 699.828 65.381 Z" style="fill: rgb(245, 245, 245); white-space: pre;"/>
  <path d="M 739.507 65.133 Q 752.155 65.133 758.293 71.395 Q 764.431 77.657 764.431 90.429 L 764.431 120.685 Q 764.431 124.033 762.447 125.955 Q 760.463 127.877 756.991 127.877 Q 753.767 127.877 751.721 125.893 Q 749.675 123.909 749.675 120.685 L 749.675 117.957 Q 747.567 122.793 743.041 125.521 Q 738.515 128.249 732.563 128.249 Q 726.487 128.249 721.527 125.769 Q 716.567 123.289 713.715 118.949 Q 710.863 114.609 710.863 109.277 Q 710.863 102.581 714.273 98.737 Q 717.683 94.893 725.371 93.157 Q 733.059 91.421 746.575 91.421 L 749.675 91.421 L 749.675 88.569 Q 749.675 82.493 747.071 79.703 Q 744.467 76.913 738.639 76.913 Q 735.043 76.913 731.323 77.967 Q 727.603 79.021 722.519 81.005 Q 719.295 82.617 717.807 82.617 Q 715.575 82.617 714.149 81.005 Q 712.723 79.393 712.723 76.789 Q 712.723 74.681 713.777 73.131 Q 714.831 71.581 717.311 70.217 Q 721.651 67.861 727.665 66.497 Q 733.679 65.133 739.507 65.133 Z M 735.663 117.089 Q 741.863 117.089 745.769 112.935 Q 749.675 108.781 749.675 102.209 L 749.675 99.605 L 747.443 99.605 Q 739.135 99.605 734.547 100.349 Q 729.959 101.093 727.975 102.953 Q 725.991 104.813 725.991 108.037 Q 725.991 112.005 728.781 114.547 Q 731.571 117.089 735.663 117.089 Z" style="fill: rgb(245, 245, 245); white-space: pre;"/>
  <path d="M 807.088 128.249 Q 798.036 128.249 791.154 124.405 Q 784.272 120.561 780.552 113.493 Q 776.832 106.425 776.832 97.001 Q 776.832 87.577 780.738 80.323 Q 784.644 73.069 791.712 69.101 Q 798.78 65.133 807.956 65.133 Q 812.792 65.133 817.69 66.497 Q 822.588 67.861 826.308 70.217 Q 830.276 72.821 830.276 76.789 Q 830.276 79.517 828.974 81.191 Q 827.672 82.865 825.564 82.865 Q 824.2 82.865 822.712 82.245 Q 821.224 81.625 819.736 80.757 Q 817.008 79.145 814.528 78.215 Q 812.048 77.285 808.824 77.285 Q 801.136 77.285 796.982 82.307 Q 792.828 87.329 792.828 96.753 Q 792.828 106.053 796.982 111.075 Q 801.136 116.097 808.824 116.097 Q 811.924 116.097 814.342 115.167 Q 816.76 114.237 819.736 112.625 Q 821.596 111.509 822.96 110.951 Q 824.324 110.393 825.688 110.393 Q 827.672 110.393 829.036 112.129 Q 830.4 113.865 830.4 116.469 Q 830.4 118.577 829.47 120.127 Q 828.54 121.677 826.432 122.917 Q 822.588 125.397 817.504 126.823 Q 812.42 128.249 807.088 128.249 Z" style="fill: rgb(245, 245, 245); white-space: pre;"/>
  <path d="M 872.558 116.469 Q 878.758 116.841 878.758 122.049 Q 878.758 125.025 876.34 126.575 Q 873.922 128.125 869.458 127.877 L 866.11 127.629 Q 845.278 126.141 845.278 105.309 L 845.278 78.277 L 839.078 78.277 Q 835.73 78.277 833.932 76.789 Q 832.134 75.301 832.134 72.449 Q 832.134 69.597 833.932 68.109 Q 835.73 66.621 839.078 66.621 L 845.278 66.621 L 845.278 55.213 Q 845.278 51.865 847.386 49.881 Q 849.494 47.897 853.09 47.897 Q 856.562 47.897 858.67 49.881 Q 860.778 51.865 860.778 55.213 L 860.778 66.621 L 871.318 66.621 Q 874.666 66.621 876.464 68.109 Q 878.262 69.597 878.262 72.449 Q 878.262 75.301 876.464 76.789 Q 874.666 78.277 871.318 78.277 L 860.778 78.277 L 860.778 106.425 Q 860.778 115.601 869.21 116.221 L 872.558 116.469 Z" style="fill: rgb(245, 245, 245); white-space: pre;"/>
  <path d="M 894.508 128.001 Q 891.16 128.001 888.99 126.079 Q 886.82 124.157 886.82 120.561 L 886.82 72.697 Q 886.82 69.101 888.99 67.241 Q 891.16 65.381 894.508 65.381 Q 897.856 65.381 900.088 67.241 Q 902.32 69.101 902.32 72.697 L 902.32 120.561 Q 902.32 124.157 900.088 126.079 Q 897.856 128.001 894.508 128.001 Z M 894.508 54.345 Q 890.292 54.345 887.812 52.051 Q 885.332 49.757 885.332 46.037 Q 885.332 42.317 887.812 40.085 Q 890.292 37.853 894.508 37.853 Q 898.6 37.853 901.142 40.085 Q 903.684 42.317 903.684 46.037 Q 903.684 49.757 901.204 52.051 Q 898.724 54.345 894.508 54.345 Z" style="fill: rgb(245, 245, 245); white-space: pre;"/>
  <path d="M 945.964 128.249 Q 936.664 128.249 929.658 124.405 Q 922.652 120.561 918.808 113.369 Q 914.964 106.177 914.964 96.629 Q 914.964 87.081 918.808 79.951 Q 922.652 72.821 929.658 68.977 Q 936.664 65.133 945.964 65.133 Q 955.264 65.133 962.27 68.977 Q 969.276 72.821 973.058 79.951 Q 976.84 87.081 976.84 96.629 Q 976.84 106.177 973.058 113.369 Q 969.276 120.561 962.27 124.405 Q 955.264 128.249 945.964 128.249 Z M 945.84 116.221 Q 953.404 116.221 957.372 111.261 Q 961.34 106.301 961.34 96.629 Q 961.34 87.081 957.372 82.059 Q 953.404 77.037 945.964 77.037 Q 938.524 77.037 934.494 82.059 Q 930.464 87.081 930.464 96.629 Q 930.464 106.301 934.432 111.261 Q 938.4 116.221 945.84 116.221 Z" style="fill: rgb(245, 245, 245); white-space: pre;"/>
  <path d="M 1024.825 65.133 Q 1035.737 65.133 1041.069 71.333 Q 1046.401 77.533 1046.401 90.057 L 1046.401 120.561 Q 1046.401 124.033 1044.355 126.017 Q 1042.309 128.001 1038.713 128.001 Q 1035.117 128.001 1033.009 126.017 Q 1030.901 124.033 1030.901 120.561 L 1030.901 90.925 Q 1030.901 83.857 1028.235 80.633 Q 1025.569 77.409 1019.865 77.409 Q 1013.169 77.409 1009.139 81.625 Q 1005.109 85.841 1005.109 92.909 L 1005.109 120.561 Q 1005.109 124.033 1003.001 126.017 Q 1000.893 128.001 997.297 128.001 Q 993.701 128.001 991.655 126.017 Q 989.609 124.033 989.609 120.561 L 989.609 72.573 Q 989.609 69.349 991.717 67.365 Q 993.825 65.381 997.421 65.381 Q 1000.645 65.381 1002.691 67.303 Q 1004.737 69.225 1004.737 72.325 L 1004.737 75.673 Q 1007.837 70.589 1013.045 67.861 Q 1018.253 65.133 1024.825 65.133 Z" style="fill: rgb(245, 245, 245); white-space: pre;"/>
</svg>