<?xml version="1.0" encoding="utf-8"?>
<svg viewBox="0 0 1050 190" xmlns="http://www.w3.org/2000/svg">
  <defs>
    <radialGradient id="gradient-1" gradientUnits="userSpaceOnUse" cx="152.286" cy="126.898" r="330" gradientTransform="matrix(0.638467, -1.091841, 1.097297, 0.641658, 52.727183, 218.434182)">
      <stop offset="0" style="stop-color: rgb(0, 170, 237);"/>
      <stop offset="1" style="stop-color: rgb(0, 145, 202);"/>
    </radialGradient>
    <linearGradient id="gradient-0" gradientUnits="userSpaceOnUse" x1="330" y1="0" x2="330" y2="660" gradientTransform="matrix(0.980745, -0.195296, 0.195753, 0.983035, -58.663244, 70.697931)">
      <stop offset="0" style="stop-color: rgb(152, 226, 255);"/>
      <stop offset="1" style="stop-color: rgb(78, 193, 239);"/>
    </linearGradient>
  </defs>
  <g transform="matrix(0.276515, 0, 0, 0.276515, 4, 3.750038)">
    <g>
      <circle style="fill: url(#gradient-1); stroke: url(#gradient-0); stroke-width: 20px;" cx="330" cy="330" r="330"/>
      <g transform="matrix(1, 0, 0, 1, 76.243515, 77.183487)">
        <circle style="fill: rgb(255, 255, 255); stroke: rgb(152, 226, 255); stroke-width: 20px;" cx="254.358" cy="253.337" r="75"/>
        <circle style="fill: rgb(212, 243, 255); stroke: rgb(99, 211, 255); stroke-width: 20px;" cx="215.084" cy="54.739" r="57.5"/>
        <circle style="stroke: rgb(78, 193, 239); fill: rgb(179, 233, 255); stroke-width: 20px;" cx="63.26" cy="186.66" r="42.5"/>
        <circle style="stroke: rgb(78, 193, 239); fill: rgb(179, 233, 255); stroke-width: 20px;" cx="405.584" cy="120.172" r="42.5"/>
        <circle style="stroke: rgb(78, 193, 239); fill: rgb(179, 233, 255); stroke-width: 20px;" cx="444.253" cy="318.582" r="42.5"/>
        <circle style="stroke: rgb(78, 193, 239); fill: rgb(179, 233, 255); stroke-width: 20px;" cx="101.614" cy="385.13" r="42.5"/>
        <circle style="fill: rgb(212, 243, 255); stroke: rgb(99, 211, 255); stroke-width: 20px;" cx="291.529" cy="450.894" r="57.5"/>
      </g>
    </g>
  </g>
  <path d="M 267.066 113.068 Q 268.43 113.068 269.422 114.184 Q 270.414 115.3 270.414 117.036 Q 270.414 120.136 266.074 122.74 Q 261.61 125.344 256.65 126.646 Q 251.69 127.948 246.978 127.948 Q 232.966 127.948 224.844 119.64 Q 216.722 111.332 216.722 96.7 Q 216.722 87.4 220.318 80.27 Q 223.914 73.14 230.424 69.172 Q 236.934 65.204 245.242 65.204 Q 257.022 65.204 263.966 72.892 Q 270.91 80.58 270.91 93.724 Q 270.91 96.204 269.918 97.32 Q 268.926 98.436 266.694 98.436 L 226.766 98.436 Q 227.882 119.764 246.978 119.764 Q 251.814 119.764 255.286 118.462 Q 258.758 117.16 262.726 114.928 Q 265.95 113.068 267.066 113.068 Z M 245.366 73.016 Q 237.43 73.016 232.656 77.976 Q 227.882 82.936 227.014 91.988 L 262.106 91.988 Q 261.858 82.812 257.518 77.914 Q 253.178 73.016 245.366 73.016 Z" style="fill: rgb(38, 38, 38); white-space: pre;"/>
  <path d="M 310.338 65.204 Q 333.03 65.204 333.03 89.012 L 333.03 122.74 Q 333.03 124.972 331.728 126.336 Q 330.426 127.7 328.194 127.7 Q 325.962 127.7 324.598 126.336 Q 323.234 124.972 323.234 122.74 L 323.234 116.788 Q 320.878 122.12 316.042 125.034 Q 311.206 127.948 304.882 127.948 Q 299.054 127.948 294.156 125.592 Q 289.258 123.236 286.406 119.02 Q 283.554 114.804 283.554 109.72 Q 283.554 102.9 287.026 99.118 Q 290.498 95.336 298.434 93.662 Q 306.37 91.988 320.506 91.988 L 323.234 91.988 L 323.234 87.896 Q 323.234 80.456 320.196 76.984 Q 317.158 73.512 310.338 73.512 Q 301.906 73.512 293.226 78.1 Q 289.878 80.208 288.514 80.208 Q 287.026 80.208 286.034 79.092 Q 285.042 77.976 285.042 76.24 Q 285.042 74.504 286.096 73.202 Q 287.15 71.9 289.506 70.536 Q 293.846 68.056 299.364 66.63 Q 304.882 65.204 310.338 65.204 Z M 306.246 120.012 Q 313.686 120.012 318.46 114.99 Q 323.234 109.968 323.234 102.032 L 323.234 98.436 L 321.002 98.436 Q 310.09 98.436 304.386 99.366 Q 298.682 100.296 296.264 102.466 Q 293.846 104.636 293.846 108.852 Q 293.846 113.688 297.38 116.85 Q 300.914 120.012 306.246 120.012 Z" style="fill: rgb(38, 38, 38); white-space: pre;"/>
  <path d="M 371.717 127.948 Q 366.013 127.948 360.867 126.584 Q 355.721 125.22 351.753 122.74 Q 349.521 121.252 348.591 119.95 Q 347.661 118.648 347.661 116.788 Q 347.661 115.176 348.591 114.122 Q 349.521 113.068 351.009 113.068 Q 352.497 113.068 355.349 114.928 Q 359.069 117.16 362.727 118.462 Q 366.385 119.764 371.841 119.764 Q 378.537 119.764 382.257 117.408 Q 385.977 115.052 385.977 110.588 Q 385.977 107.86 384.613 106.186 Q 383.249 104.512 379.901 103.21 Q 376.553 101.908 370.105 100.544 Q 359.193 98.188 354.481 94.22 Q 349.769 90.252 349.769 83.432 Q 349.769 78.1 352.745 74.008 Q 355.721 69.916 360.991 67.56 Q 366.261 65.204 372.957 65.204 Q 377.793 65.204 382.319 66.506 Q 386.845 67.808 390.317 70.164 Q 394.533 73.14 394.533 76.364 Q 394.533 77.976 393.541 79.092 Q 392.549 80.208 391.185 80.208 Q 389.697 80.208 386.721 78.1 Q 383.249 75.868 380.149 74.628 Q 377.049 73.388 372.461 73.388 Q 366.633 73.388 363.099 75.992 Q 359.565 78.596 359.565 82.936 Q 359.565 85.664 360.867 87.338 Q 362.169 89.012 365.207 90.314 Q 368.245 91.616 373.949 92.856 Q 382.381 94.716 387.031 96.948 Q 391.681 99.18 393.665 102.404 Q 395.649 105.628 395.649 110.588 Q 395.649 118.4 389.077 123.174 Q 382.505 127.948 371.717 127.948 Z" style="fill: rgb(38, 38, 38); white-space: pre;"/>
  <path d="M 453.311 68.552 Q 454.675 65.576 457.651 65.576 Q 459.511 65.576 460.999 66.816 Q 462.487 68.056 462.487 69.916 Q 462.487 71.032 461.991 71.9 L 427.147 147.044 Q 426.527 148.408 425.349 149.152 Q 424.171 149.896 422.931 149.896 Q 421.071 149.896 419.645 148.718 Q 418.219 147.54 418.219 145.68 Q 418.219 144.688 418.715 143.696 L 427.395 124.972 L 402.843 71.9 Q 402.347 71.032 402.347 70.04 Q 402.347 68.18 404.021 66.816 Q 405.695 65.452 407.679 65.452 Q 408.919 65.452 410.097 66.196 Q 411.275 66.94 411.895 68.304 L 432.603 114.804 L 453.311 68.552 Z" style="fill: rgb(38, 38, 38); white-space: pre;"/>
  <path d="M 522.881 39.04 Q 526.353 39.04 528.585 41.024 Q 530.817 43.008 530.817 46.232 L 530.817 120.384 Q 530.817 123.732 528.709 125.716 Q 526.601 127.7 523.129 127.7 Q 519.657 127.7 517.549 125.716 Q 515.441 123.732 515.441 120.384 L 515.441 117.284 Q 512.713 122.368 507.567 125.22 Q 502.421 128.072 495.849 128.072 Q 488.037 128.072 481.899 124.104 Q 475.761 120.136 472.351 112.882 Q 468.941 105.628 468.941 96.204 Q 468.941 86.78 472.351 79.712 Q 475.761 72.644 481.837 68.8 Q 487.913 64.956 495.849 64.956 Q 502.421 64.956 507.505 67.684 Q 512.589 70.412 515.317 75.372 L 515.317 45.984 Q 515.317 42.884 517.363 40.962 Q 519.409 39.04 522.881 39.04 Z M 499.941 116.044 Q 507.381 116.044 511.411 110.96 Q 515.441 105.876 515.441 96.452 Q 515.441 87.028 511.411 82.006 Q 507.381 76.984 500.065 76.984 Q 492.625 76.984 488.533 81.944 Q 484.441 86.904 484.441 96.204 Q 484.441 105.628 488.533 110.836 Q 492.625 116.044 499.941 116.044 Z" style="fill: rgb(38, 38, 38); white-space: pre;"/>
  <path d="M 554.5 127.824 Q 551.152 127.824 548.982 125.902 Q 546.812 123.98 546.812 120.384 L 546.812 72.52 Q 546.812 68.924 548.982 67.064 Q 551.152 65.204 554.5 65.204 Q 557.848 65.204 560.08 67.064 Q 562.312 68.924 562.312 72.52 L 562.312 120.384 Q 562.312 123.98 560.08 125.902 Q 557.848 127.824 554.5 127.824 Z M 554.5 54.168 Q 550.284 54.168 547.804 51.874 Q 545.324 49.58 545.324 45.86 Q 545.324 42.14 547.804 39.908 Q 550.284 37.676 554.5 37.676 Q 558.592 37.676 561.134 39.908 Q 563.676 42.14 563.676 45.86 Q 563.676 49.58 561.196 51.874 Q 558.716 54.168 554.5 54.168 Z" style="fill: rgb(38, 38, 38); white-space: pre;"/>
  <path d="M 608.933 51.192 Q 603.229 51.564 600.625 54.664 Q 598.021 57.764 598.021 63.592 L 598.021 66.444 L 608.561 66.444 Q 615.505 66.444 615.505 72.272 Q 615.505 78.1 608.561 78.1 L 598.021 78.1 L 598.021 120.384 Q 598.021 123.98 595.851 125.84 Q 593.681 127.7 590.333 127.7 Q 586.985 127.7 584.753 125.84 Q 582.521 123.98 582.521 120.384 L 582.521 78.1 L 576.321 78.1 Q 569.377 78.1 569.377 72.272 Q 569.377 66.444 576.321 66.444 L 582.521 66.444 L 582.521 65.576 Q 582.521 53.92 588.659 47.286 Q 594.797 40.652 605.957 39.784 L 609.181 39.536 Q 614.141 39.164 616.187 40.59 Q 618.233 42.016 618.233 44.992 Q 618.233 50.324 612.157 50.944 L 608.933 51.192 Z" style="fill: rgb(38, 38, 38); white-space: pre;"/>
  <path d="M 652.206 51.192 Q 646.502 51.564 643.898 54.664 Q 641.294 57.764 641.294 63.592 L 641.294 66.444 L 651.834 66.444 Q 658.778 66.444 658.778 72.272 Q 658.778 78.1 651.834 78.1 L 641.294 78.1 L 641.294 120.384 Q 641.294 123.98 639.124 125.84 Q 636.954 127.7 633.606 127.7 Q 630.258 127.7 628.026 125.84 Q 625.794 123.98 625.794 120.384 L 625.794 78.1 L 619.594 78.1 Q 612.65 78.1 612.65 72.272 Q 612.65 66.444 619.594 66.444 L 625.794 66.444 L 625.794 65.576 Q 625.794 53.92 631.932 47.286 Q 638.07 40.652 649.23 39.784 L 652.454 39.536 Q 657.414 39.164 659.46 40.59 Q 661.506 42.016 661.506 44.992 Q 661.506 50.324 655.43 50.944 L 652.206 51.192 Z" style="fill: rgb(38, 38, 38); white-space: pre;"/>
  <path d="M 699.828 65.204 Q 703.052 64.956 704.912 66.568 Q 706.772 68.18 706.772 71.404 Q 706.772 74.752 705.16 76.364 Q 703.548 77.976 699.332 78.472 L 695.612 78.844 Q 688.296 79.588 684.886 83.804 Q 681.476 88.02 681.476 94.344 L 681.476 120.384 Q 681.476 123.98 679.244 125.902 Q 677.012 127.824 673.664 127.824 Q 670.316 127.824 668.146 125.902 Q 665.976 123.98 665.976 120.384 L 665.976 72.396 Q 665.976 68.924 668.146 67.064 Q 670.316 65.204 673.54 65.204 Q 676.764 65.204 678.748 67.002 Q 680.732 68.8 680.732 72.148 L 680.732 77.108 Q 683.088 71.652 687.738 68.676 Q 692.388 65.7 698.092 65.328 L 699.828 65.204 Z" style="fill: rgb(38, 38, 38); white-space: pre;"/>
  <path d="M 739.507 64.956 Q 752.155 64.956 758.293 71.218 Q 764.431 77.48 764.431 90.252 L 764.431 120.508 Q 764.431 123.856 762.447 125.778 Q 760.463 127.7 756.991 127.7 Q 753.767 127.7 751.721 125.716 Q 749.675 123.732 749.675 120.508 L 749.675 117.78 Q 747.567 122.616 743.041 125.344 Q 738.515 128.072 732.563 128.072 Q 726.487 128.072 721.527 125.592 Q 716.567 123.112 713.715 118.772 Q 710.863 114.432 710.863 109.1 Q 710.863 102.404 714.273 98.56 Q 717.683 94.716 725.371 92.98 Q 733.059 91.244 746.575 91.244 L 749.675 91.244 L 749.675 88.392 Q 749.675 82.316 747.071 79.526 Q 744.467 76.736 738.639 76.736 Q 735.043 76.736 731.323 77.79 Q 727.603 78.844 722.519 80.828 Q 719.295 82.44 717.807 82.44 Q 715.575 82.44 714.149 80.828 Q 712.723 79.216 712.723 76.612 Q 712.723 74.504 713.777 72.954 Q 714.831 71.404 717.311 70.04 Q 721.651 67.684 727.665 66.32 Q 733.679 64.956 739.507 64.956 Z M 735.663 116.912 Q 741.863 116.912 745.769 112.758 Q 749.675 108.604 749.675 102.032 L 749.675 99.428 L 747.443 99.428 Q 739.135 99.428 734.547 100.172 Q 729.959 100.916 727.975 102.776 Q 725.991 104.636 725.991 107.86 Q 725.991 111.828 728.781 114.37 Q 731.571 116.912 735.663 116.912 Z" style="fill: rgb(38, 38, 38); white-space: pre;"/>
  <path d="M 807.088 128.072 Q 798.036 128.072 791.154 124.228 Q 784.272 120.384 780.552 113.316 Q 776.832 106.248 776.832 96.824 Q 776.832 87.4 780.738 80.146 Q 784.644 72.892 791.712 68.924 Q 798.78 64.956 807.956 64.956 Q 812.792 64.956 817.69 66.32 Q 822.588 67.684 826.308 70.04 Q 830.276 72.644 830.276 76.612 Q 830.276 79.34 828.974 81.014 Q 827.672 82.688 825.564 82.688 Q 824.2 82.688 822.712 82.068 Q 821.224 81.448 819.736 80.58 Q 817.008 78.968 814.528 78.038 Q 812.048 77.108 808.824 77.108 Q 801.136 77.108 796.982 82.13 Q 792.828 87.152 792.828 96.576 Q 792.828 105.876 796.982 110.898 Q 801.136 115.92 808.824 115.92 Q 811.924 115.92 814.342 114.99 Q 816.76 114.06 819.736 112.448 Q 821.596 111.332 822.96 110.774 Q 824.324 110.216 825.688 110.216 Q 827.672 110.216 829.036 111.952 Q 830.4 113.688 830.4 116.292 Q 830.4 118.4 829.47 119.95 Q 828.54 121.5 826.432 122.74 Q 822.588 125.22 817.504 126.646 Q 812.42 128.072 807.088 128.072 Z" style="fill: rgb(38, 38, 38); white-space: pre;"/>
  <path d="M 872.558 116.292 Q 878.758 116.664 878.758 121.872 Q 878.758 124.848 876.34 126.398 Q 873.922 127.948 869.458 127.7 L 866.11 127.452 Q 845.278 125.964 845.278 105.132 L 845.278 78.1 L 839.078 78.1 Q 835.73 78.1 833.932 76.612 Q 832.134 75.124 832.134 72.272 Q 832.134 69.42 833.932 67.932 Q 835.73 66.444 839.078 66.444 L 845.278 66.444 L 845.278 55.036 Q 845.278 51.688 847.386 49.704 Q 849.494 47.72 853.09 47.72 Q 856.562 47.72 858.67 49.704 Q 860.778 51.688 860.778 55.036 L 860.778 66.444 L 871.318 66.444 Q 874.666 66.444 876.464 67.932 Q 878.262 69.42 878.262 72.272 Q 878.262 75.124 876.464 76.612 Q 874.666 78.1 871.318 78.1 L 860.778 78.1 L 860.778 106.248 Q 860.778 115.424 869.21 116.044 L 872.558 116.292 Z" style="fill: rgb(38, 38, 38); white-space: pre;"/>
  <path d="M 894.508 127.824 Q 891.16 127.824 888.99 125.902 Q 886.82 123.98 886.82 120.384 L 886.82 72.52 Q 886.82 68.924 888.99 67.064 Q 891.16 65.204 894.508 65.204 Q 897.856 65.204 900.088 67.064 Q 902.32 68.924 902.32 72.52 L 902.32 120.384 Q 902.32 123.98 900.088 125.902 Q 897.856 127.824 894.508 127.824 Z M 894.508 54.168 Q 890.292 54.168 887.812 51.874 Q 885.332 49.58 885.332 45.86 Q 885.332 42.14 887.812 39.908 Q 890.292 37.676 894.508 37.676 Q 898.6 37.676 901.142 39.908 Q 903.684 42.14 903.684 45.86 Q 903.684 49.58 901.204 51.874 Q 898.724 54.168 894.508 54.168 Z" style="fill: rgb(38, 38, 38); white-space: pre;"/>
  <path d="M 945.964 128.072 Q 936.664 128.072 929.658 124.228 Q 922.652 120.384 918.808 113.192 Q 914.964 106 914.964 96.452 Q 914.964 86.904 918.808 79.774 Q 922.652 72.644 929.658 68.8 Q 936.664 64.956 945.964 64.956 Q 955.264 64.956 962.27 68.8 Q 969.276 72.644 973.058 79.774 Q 976.84 86.904 976.84 96.452 Q 976.84 106 973.058 113.192 Q 969.276 120.384 962.27 124.228 Q 955.264 128.072 945.964 128.072 Z M 945.84 116.044 Q 953.404 116.044 957.372 111.084 Q 961.34 106.124 961.34 96.452 Q 961.34 86.904 957.372 81.882 Q 953.404 76.86 945.964 76.86 Q 938.524 76.86 934.494 81.882 Q 930.464 86.904 930.464 96.452 Q 930.464 106.124 934.432 111.084 Q 938.4 116.044 945.84 116.044 Z" style="fill: rgb(38, 38, 38); white-space: pre;"/>
  <path d="M 1024.825 64.956 Q 1035.737 64.956 1041.069 71.156 Q 1046.401 77.356 1046.401 89.88 L 1046.401 120.384 Q 1046.401 123.856 1044.355 125.84 Q 1042.309 127.824 1038.713 127.824 Q 1035.117 127.824 1033.009 125.84 Q 1030.901 123.856 1030.901 120.384 L 1030.901 90.748 Q 1030.901 83.68 1028.235 80.456 Q 1025.569 77.232 1019.865 77.232 Q 1013.169 77.232 1009.139 81.448 Q 1005.109 85.664 1005.109 92.732 L 1005.109 120.384 Q 1005.109 123.856 1003.001 125.84 Q 1000.893 127.824 997.297 127.824 Q 993.701 127.824 991.655 125.84 Q 989.609 123.856 989.609 120.384 L 989.609 72.396 Q 989.609 69.172 991.717 67.188 Q 993.825 65.204 997.421 65.204 Q 1000.645 65.204 1002.691 67.126 Q 1004.737 69.048 1004.737 72.148 L 1004.737 75.496 Q 1007.837 70.412 1013.045 67.684 Q 1018.253 64.956 1024.825 64.956 Z" style="fill: rgb(38, 38, 38); white-space: pre;"/>
</svg>